<?xml version="1.0" encoding="utf-8"?>
<!-- Generator: Adobe Illustrator 17.0.0, SVG Export Plug-In . SVG Version: 6.00 Build 0)  -->
<!DOCTYPE svg PUBLIC "-//W3C//DTD SVG 1.1//EN" "http://www.w3.org/Graphics/SVG/1.1/DTD/svg11.dtd">
<svg version="1.1" xmlns="http://www.w3.org/2000/svg" xmlns:xlink="http://www.w3.org/1999/xlink" x="0px" y="0px"
	 width="720.164px" height="781px" viewBox="0 0 720.164 781" enable-background="new 0 0 720.164 781" xml:space="preserve">
<g id="Layer_1">
	<image overflow="visible" width="720" height="720" xlink:href="shadow-triangle.png"  transform="matrix(1.0002 0 0 1.0002 0 0)">
	</image>
</g>
<g id="Layer_2">
	<polygon fill="#FFFFFF" stroke="#231F20" stroke-width="0.25" stroke-miterlimit="10" points="286,321 360.082,272 361,189.5 	"/>
	<polygon fill="#FFFFFF" stroke="#231F20" stroke-width="0.25" stroke-miterlimit="10" points="195,479.5 266,425.5 360.082,272 
		286,321 	"/>
	<polygon fill="#FFFFFF" stroke="#231F20" stroke-width="0.25" stroke-miterlimit="10" points="355.5,474.5 266,425.5 195,479.5 	
		"/>
	<polygon fill="#FFFFFF" stroke="#231F20" stroke-width="0.25" stroke-miterlimit="10" points="527.5,475 450,424.5 266,425.5 
		355.5,474.5 	"/>
	<polygon fill="#FFFFFF" stroke="#231F20" stroke-width="0.25" stroke-miterlimit="10" points="360.082,272 360.082,379.5 
		266,425.5 	"/>
	<polygon fill="#FFFFFF" stroke="#231F20" stroke-width="0.25" stroke-miterlimit="10" points="450,424.5 360.082,379.5 266,425.5 	
		"/>
	<polygon fill="#FFFFFF" stroke="#231F20" stroke-width="0.25" stroke-miterlimit="10" points="447,340 450,424.5 527.5,475 	"/>
	<polygon fill="#FFFFFF" stroke="#231F20" stroke-width="0.25" stroke-miterlimit="10" points="361,189.5 360.082,272 450,424.5 
		447,340 	"/>
	<polygon fill="#FFFFFF" stroke="#231F20" stroke-width="0.25" stroke-miterlimit="10" points="360.082,379.5 360.082,272 
		450,424.5 	"/>
</g>
</svg>
