<?xml version="1.0" encoding="utf-8"?>
<!-- Generator: Adobe Illustrator 17.0.0, SVG Export Plug-In . SVG Version: 6.00 Build 0)  -->
<!DOCTYPE svg PUBLIC "-//W3C//DTD SVG 1.1//EN" "http://www.w3.org/Graphics/SVG/1.1/DTD/svg11.dtd">
<svg version="1.1" xmlns="http://www.w3.org/2000/svg" xmlns:xlink="http://www.w3.org/1999/xlink" x="0px" y="0px"
	 width="720.164px" height="720.144px" viewBox="0 0 720.164 720.144" enable-background="new 0 0 720.164 720.144"
	 xml:space="preserve">
<g id="Layer_1">
	<g id="Layer_1_1_">
		
			<image overflow="visible" enable-background="new    " width="720" height="720" xlink:href="shadow-triangle.png"  transform="matrix(1.0002 0 0 1.0002 0 0)">
		</image>
	</g>
</g>
<g id="Layer_2_1_">
	<polygon fill="#FFFFFF" stroke="#231F20" stroke-width="0.25" stroke-miterlimit="10" points="181.832,242 255.582,288.25 
		449.582,288.25 372.082,244.75 	"/>
	<polygon fill="#FFFFFF" stroke="#231F20" stroke-width="0.25" stroke-miterlimit="10" points="541.332,244.25 449.582,288.25 
		372.082,244.75 	"/>
	<polygon fill="#FFFFFF" stroke="#231F20" stroke-width="0.25" stroke-miterlimit="10" points="360.072,351.25 255.582,288.25 
		449.582,288.25 	"/>
	<path fill="#FFFFFF" stroke="#231F20" stroke-width="0.25" stroke-miterlimit="10" d="M351.582,463"/>
	<polygon fill="#FFFFFF" stroke="#231F20" stroke-width="0.25" stroke-miterlimit="10" points="255.582,288.25 351.582,463 
		360.072,351.25 	"/>
	<polygon fill="#FFFFFF" stroke="#231F20" stroke-width="0.25" stroke-miterlimit="10" points="449.582,288.25 351.582,463 
		360.072,351.25 	"/>
	<polygon fill="#FFFFFF" stroke="#231F20" stroke-width="0.25" stroke-miterlimit="10" points="181.832,242 265.332,384.5 
		255.582,288.25 	"/>
	<polygon fill="#FFFFFF" stroke="#231F20" stroke-width="0.25" stroke-miterlimit="10" points="362.582,558 351.582,463 
		255.582,288.25 265.332,384.5 	"/>
	<polygon fill="#FFFFFF" stroke="#231F20" stroke-width="0.25" stroke-miterlimit="10" points="541.332,244.25 447.582,402.75 
		351.582,463 449.582,288.25 	"/>
	<polygon fill="#FFFFFF" stroke="#231F20" stroke-width="0.25" stroke-miterlimit="10" points="362.582,558 351.582,463 
		447.582,402.75 	"/>
</g>
</svg>
