<?xml version="1.0" encoding="utf-8"?>
<!-- Generator: Adobe Illustrator 17.0.0, SVG Export Plug-In . SVG Version: 6.00 Build 0)  -->
<!DOCTYPE svg PUBLIC "-//W3C//DTD SVG 1.1//EN" "http://www.w3.org/Graphics/SVG/1.1/DTD/svg11.dtd">
<svg version="1.1" xmlns="http://www.w3.org/2000/svg" xmlns:xlink="http://www.w3.org/1999/xlink" x="0px" y="0px" width="720px"
	 height="720px" viewBox="0 0 720 720" enable-background="new 0 0 720 720" xml:space="preserve">
<g id="Layer_1" display="none">
	
		<image display="inline" overflow="visible" width="720" height="720" xlink:href="../Sites/cosmic-surgery/src/images/shadow-icosahedron.png"  transform="matrix(0.7 0 0 0.7 108 108)">
	</image>
</g>
<g id="Layer_2">
	<polygon fill="#FFFFFF" stroke="#231F20" stroke-width="0.25" stroke-miterlimit="10" points="312.4,344.6 361.225,358.425 
		394.65,326.05 334.625,264.275 	"/>
	<polygon fill="#FFFFFF" stroke="#231F20" stroke-width="0.25" stroke-miterlimit="10" points="274.775,291.925 282.825,336.375 
		312.4,344.6 334.625,264.275 	"/>
	<polygon fill="#FFFFFF" stroke="#231F20" stroke-width="0.25" stroke-miterlimit="10" points="331.125,239.6 292.45,267.25 
		274.775,288.6 274.775,291.925 334.625,264.275 	"/>
	<polygon fill="#FFFFFF" stroke="#231F20" stroke-width="0.25" stroke-miterlimit="10" points="400.775,259.375 375.575,246.425 
		331.125,239.6 334.625,264.275 	"/>
	<polygon fill="#FFFFFF" stroke="#231F20" stroke-width="0.25" stroke-miterlimit="10" points="416.875,302.775 394.65,326.05 
		334.625,264.275 400.775,259.375 	"/>
	<polygon fill="#FFFFFF" stroke="#231F20" stroke-width="0.25" stroke-miterlimit="10" points="452.4,384.5 456.775,317.825 
		416.875,302.775 394.65,326.05 	"/>
	<polygon fill="#FFFFFF" stroke="#231F20" stroke-width="0.25" stroke-miterlimit="10" points="373.475,406.2 452.4,384.5 
		394.65,326.05 361.225,358.425 	"/>
	<polygon fill="#FFFFFF" stroke="#231F20" stroke-width="0.25" stroke-miterlimit="10" points="380.825,436.3 373.475,406.2 
		452.4,384.5 424.925,444.35 	"/>
	<polygon fill="#FFFFFF" stroke="#231F20" stroke-width="0.25" stroke-miterlimit="10" points="474.275,388.525 452.4,384.5 
		424.925,444.35 446.549,424.972 	"/>
	<polygon fill="#FFFFFF" stroke="#231F20" stroke-width="0.25" stroke-miterlimit="10" points="456.775,317.825 452.4,384.5 
		474.275,388.525 467.45,345.3 	"/>
	<polygon fill="#FFFFFF" stroke="#231F20" stroke-width="0.25" stroke-miterlimit="10" points="492.475,389.575 474.275,388.525 
		467.45,345.3 476.725,325 	"/>
	<polygon fill="#FFFFFF" stroke="#231F20" stroke-width="0.25" stroke-miterlimit="10" points="462.2,255 456.775,317.825 
		467.45,345.3 476.725,325 	"/>
	<polygon fill="#FFFFFF" stroke="#231F20" stroke-width="0.25" stroke-miterlimit="10" points="400.775,259.375 416.875,302.775 
		456.775,317.825 462.2,255 	"/>
	<polygon fill="#FFFFFF" stroke="#231F20" stroke-width="0.25" stroke-miterlimit="10" points="391.675,233.125 375.575,246.425 
		400.775,259.375 462.2,255 	"/>
	<path fill="#FFFFFF" stroke="#231F20" stroke-width="0.25" stroke-miterlimit="10" d="M323.25,214.4"/>
	<polygon fill="#FFFFFF" stroke="#231F20" stroke-width="0.25" stroke-miterlimit="10" points="331.125,239.6 375.575,246.425 
		391.675,233.125 323.25,214.4 	"/>
	<polygon fill="#FFFFFF" stroke="#231F20" stroke-width="0.25" stroke-miterlimit="10" points="273.375,264.275 292.45,267.25 
		331.125,239.6 323.25,214.4 	"/>
	<polygon fill="#FFFFFF" stroke="#231F20" stroke-width="0.25" stroke-miterlimit="10" points="220.875,314.325 274.775,288.6 
		292.45,267.25 273.375,264.275 	"/>
	<polygon fill="#FFFFFF" stroke="#231F20" stroke-width="0.25" stroke-miterlimit="10" points="257.625,369.8 220.875,314.325 
		274.775,288.6 282.825,336.375 	"/>
	<polygon fill="#FFFFFF" stroke="#231F20" stroke-width="0.25" stroke-miterlimit="10" points="290.7,431.925 257.625,369.8 
		282.825,336.375 312.4,344.6 	"/>
	<polygon fill="#FFFFFF" stroke="#231F20" stroke-width="0.25" stroke-miterlimit="10" points="373.475,406.2 290.7,431.925 
		312.4,344.6 361.225,358.425 	"/>
	<polygon fill="#FFFFFF" stroke="#231F20" stroke-width="0.25" stroke-miterlimit="10" points="220.875,314.325 221.75,323.075 
		242.05,388.263 260.425,398.15 257.954,370.418 	"/>
	<polygon fill="#FFFFFF" stroke="#231F20" stroke-width="0.25" stroke-miterlimit="10" points="290.7,431.925 277.575,442.075 
		260.425,398.15 257.954,370.418 	"/>
	<polygon fill="#FFFFFF" stroke="#231F20" stroke-width="0.25" stroke-miterlimit="10" points="242.05,388.263 263.4,452.225 
		277.575,442.075 260.425,398.15 	"/>
	<polygon fill="#FFFFFF" stroke="#231F20" stroke-width="0.25" stroke-miterlimit="10" points="290.7,431.925 347.05,464.3 
		380.825,436.3 373.475,406.2 	"/>
	<polygon fill="#FFFFFF" stroke="#231F20" stroke-width="0.25" stroke-miterlimit="10" points="327.275,473.925 318.113,455.043 
		277.575,442.075 263.4,452.225 	"/>
	<polygon fill="#FFFFFF" stroke="#231F20" stroke-width="0.25" stroke-miterlimit="10" points="290.7,431.925 277.575,442.075 
		347.05,464.3 	"/>
	<polygon fill="#FFFFFF" stroke="#231F20" stroke-width="0.25" stroke-miterlimit="10" points="347.05,464.3 396.75,495.975 
		327.275,473.925 317.954,454.992 	"/>
	<polygon fill="#FFFFFF" stroke="#231F20" stroke-width="0.25" stroke-miterlimit="10" points="380.825,436.3 424.925,444.35 
		396.75,495.975 347.05,464.3 	"/>
	<polygon fill="#FFFFFF" stroke="#231F20" stroke-width="0.25" stroke-miterlimit="10" points="396.75,495.975 447.325,442.075 
		446.549,424.972 424.925,444.35 	"/>
	<polygon fill="#FFFFFF" stroke="#231F20" stroke-width="0.25" stroke-miterlimit="10" points="474.275,388.525 446.549,424.972 
		447.325,442.075 492.475,389.575 	"/>
</g>
</svg>
